<?xml version="1.0" encoding="iso-8859-1"?>
<!-- Generator: Adobe Illustrator 19.0.0, SVG Export Plug-In . SVG Version: 6.00 Build 0)  -->
<svg version="1.1" id="Layer_1" xmlns="http://www.w3.org/2000/svg" xmlns:xlink="http://www.w3.org/1999/xlink" x="0px" y="0px"
	 viewBox="0 0 502 502" style="enable-background:new 0 0 502 502;" xml:space="preserve">
<g>
	<path style="fill:#16C79A;" d="M197.098,254.974c0,46.365-83.952,155.982-83.952,155.982S29.194,301.339,29.194,254.974
		s37.587-83.952,83.952-83.952S197.098,208.609,197.098,254.974z"/>
	<circle style="fill:#E6E6E6;" cx="113.146" cy="254.974" r="47.192"/>
	<circle style="fill:#16C79A;" cx="113.146" cy="469.606" r="22.394"/>
	<circle style="fill:#16C79A;" cx="450.411" cy="130.5" r="22.394"/>
	<rect x="391.761" y="10" style="fill:#16C79A;" width="58.65" height="43.721"/>
	<g>
		<path d="M113.146,420.956c3.112,0,6.047-1.449,7.939-3.919c0.868-1.134,21.503-28.143,42.49-61.341
			c28.88-45.684,43.523-79.571,43.523-100.721c0-51.805-42.147-93.952-93.952-93.952s-93.952,42.147-93.952,93.952
			c0,21.15,14.644,55.038,43.523,100.721c20.986,33.198,41.621,60.207,42.489,61.34
			C107.099,419.507,110.034,420.956,113.146,420.956z M39.195,254.974c0-40.777,33.174-73.952,73.952-73.952
			s73.952,33.175,73.952,73.952c0,31.665-47.747,103.462-73.952,139.274C86.941,358.437,39.195,286.639,39.195,254.974z"/>
		<path d="M170.338,254.974c0-31.536-25.656-57.192-57.192-57.192s-57.192,25.656-57.192,57.192s25.656,57.192,57.192,57.192
			S170.338,286.51,170.338,254.974z M75.954,254.974c0-20.508,16.684-37.192,37.192-37.192s37.192,16.684,37.192,37.192
			s-16.684,37.192-37.192,37.192S75.954,275.482,75.954,254.974z"/>
		<path d="M388.029,290.053h-67.474c-41.231,0-74.776-33.545-74.776-74.777s33.545-74.776,74.776-74.776h7.223
			c5.522,0,10-4.477,10-10s-4.478-10-10-10h-7.223c-52.26,0-94.776,42.517-94.776,94.777c0,52.26,42.517,94.776,94.776,94.776
			h67.474c41.231,0,74.776,33.544,74.776,74.776s-33.545,74.776-74.776,74.776H143.953c-4.224-12.982-16.434-22.394-30.807-22.394
			c-17.862,0-32.394,14.532-32.394,32.394c0,17.862,14.532,32.394,32.394,32.394c14.373,0,26.583-9.412,30.807-22.394h244.076
			c52.26,0,94.776-42.517,94.776-94.776S440.289,290.053,388.029,290.053z M113.146,482c-6.834,0-12.394-5.56-12.394-12.394
			s5.56-12.394,12.394-12.394c6.834,0,12.394,5.56,12.394,12.394S119.98,482,113.146,482z"/>
		<path d="M365.101,140.5h27.726c5.522,0,10-4.477,10-10s-4.478-10-10-10h-27.726c-5.522,0-10,4.477-10,10
			S359.579,140.5,365.101,140.5z"/>
		<path d="M391.76,63.721h48.65v35.972c-12.982,4.224-22.394,16.434-22.394,30.807c0,17.862,14.531,32.394,32.394,32.394
			s32.395-14.532,32.395-32.394c0-14.373-9.412-26.583-22.395-30.807V53.721V10c0-5.523-4.478-10-10-10h-58.65
			c-5.522,0-10,4.477-10,10v43.721C381.76,59.244,386.238,63.721,391.76,63.721z M450.411,142.894
			c-6.834,0-12.394-5.56-12.394-12.394s5.56-12.394,12.394-12.394s12.395,5.56,12.395,12.394S457.245,142.894,450.411,142.894z
			 M401.76,20h38.65v23.721h-38.65V20z"/>
	</g>
</g>
<g>
</g>
<g>
</g>
<g>
</g>
<g>
</g>
<g>
</g>
<g>
</g>
<g>
</g>
<g>
</g>
<g>
</g>
<g>
</g>
<g>
</g>
<g>
</g>
<g>
</g>
<g>
</g>
<g>
</g>
</svg>
